<svg id="visual" viewBox="0 0 900 600" width="900" height="600" xmlns="http://www.w3.org/2000/svg" xmlns:xlink="http://www.w3.org/1999/xlink" version="1.1"><rect x="0" y="0" width="900" height="600" fill="#1FA2FF"></rect><path d="M0 376L15 381.7C30 387.3 60 398.7 90 395C120 391.3 150 372.7 180 360.7C210 348.7 240 343.3 270 352.2C300 361 330 384 360 394.8C390 405.7 420 404.3 450 393.7C480 383 510 363 540 354.3C570 345.7 600 348.3 630 354.7C660 361 690 371 720 375.7C750 380.3 780 379.7 810 377.8C840 376 870 373 885 371.5L900 370L900 601L885 601C870 601 840 601 810 601C780 601 750 601 720 601C690 601 660 601 630 601C600 601 570 601 540 601C510 601 480 601 450 601C420 601 390 601 360 601C330 601 300 601 270 601C240 601 210 601 180 601C150 601 120 601 90 601C60 601 30 601 15 601L0 601Z" fill="#12d8fa"></path><path d="M0 423L15 423.5C30 424 60 425 90 422C120 419 150 412 180 405C210 398 240 391 270 386.7C300 382.3 330 380.7 360 380.8C390 381 420 383 450 385.2C480 387.3 510 389.7 540 391.3C570 393 600 394 630 400.7C660 407.3 690 419.7 720 417.2C750 414.7 780 397.3 810 397.5C840 397.7 870 415.3 885 424.2L900 433L900 601L885 601C870 601 840 601 810 601C780 601 750 601 720 601C690 601 660 601 630 601C600 601 570 601 540 601C510 601 480 601 450 601C420 601 390 601 360 601C330 601 300 601 270 601C240 601 210 601 180 601C150 601 120 601 90 601C60 601 30 601 15 601L0 601Z" fill="#2ce1f2"></path><path d="M0 441L15 440.3C30 439.7 60 438.3 90 434.5C120 430.7 150 424.3 180 424.7C210 425 240 432 270 438.5C300 445 330 451 360 448.7C390 446.3 420 435.7 450 429.8C480 424 510 423 540 430C570 437 600 452 630 456.3C660 460.7 690 454.3 720 452.8C750 451.3 780 454.7 810 455.2C840 455.7 870 453.3 885 452.2L900 451L900 601L885 601C870 601 840 601 810 601C780 601 750 601 720 601C690 601 660 601 630 601C600 601 570 601 540 601C510 601 480 601 450 601C420 601 390 601 360 601C330 601 300 601 270 601C240 601 210 601 180 601C150 601 120 601 90 601C60 601 30 601 15 601L0 601Z" fill="#4beae9"></path><path d="M0 509L15 500.2C30 491.3 60 473.7 90 466.8C120 460 150 464 180 464.7C210 465.3 240 462.7 270 469C300 475.3 330 490.7 360 497C390 503.3 420 500.7 450 497.7C480 494.7 510 491.3 540 485.2C570 479 600 470 630 467.3C660 464.7 690 468.3 720 472.8C750 477.3 780 482.7 810 489.2C840 495.7 870 503.3 885 507.2L900 511L900 601L885 601C870 601 840 601 810 601C780 601 750 601 720 601C690 601 660 601 630 601C600 601 570 601 540 601C510 601 480 601 450 601C420 601 390 601 360 601C330 601 300 601 270 601C240 601 210 601 180 601C150 601 120 601 90 601C60 601 30 601 15 601L0 601Z" fill="#6af2df"></path><path d="M0 509L15 509.2C30 509.3 60 509.7 90 510.8C120 512 150 514 180 517.7C210 521.3 240 526.7 270 526.7C300 526.7 330 521.3 360 518C390 514.7 420 513.3 450 510.7C480 508 510 504 540 508.2C570 512.3 600 524.7 630 531.2C660 537.7 690 538.3 720 536.8C750 535.3 780 531.7 810 532.2C840 532.7 870 537.3 885 539.7L900 542L900 601L885 601C870 601 840 601 810 601C780 601 750 601 720 601C690 601 660 601 630 601C600 601 570 601 540 601C510 601 480 601 450 601C420 601 390 601 360 601C330 601 300 601 270 601C240 601 210 601 180 601C150 601 120 601 90 601C60 601 30 601 15 601L0 601Z" fill="#88f9d4"></path><path d="M0 576L15 574.2C30 572.3 60 568.7 90 568.3C120 568 150 571 180 572.7C210 574.3 240 574.7 270 570C300 565.3 330 555.7 360 550.5C390 545.3 420 544.7 450 546.2C480 547.7 510 551.3 540 551.3C570 551.3 600 547.7 630 546.8C660 546 690 548 720 551.5C750 555 780 560 810 561C840 562 870 559 885 557.5L900 556L900 601L885 601C870 601 840 601 810 601C780 601 750 601 720 601C690 601 660 601 630 601C600 601 570 601 540 601C510 601 480 601 450 601C420 601 390 601 360 601C330 601 300 601 270 601C240 601 210 601 180 601C150 601 120 601 90 601C60 601 30 601 15 601L0 601Z" fill="#a6ffcb"></path></svg>